<?xml version="1.0" encoding="utf-8"?>
<!-- Generator: Adobe Illustrator 26.1.0, SVG Export Plug-In . SVG Version: 6.00 Build 0)  -->
<svg version="1.1" id="Capa_1" xmlns="http://www.w3.org/2000/svg" xmlns:xlink="http://www.w3.org/1999/xlink" x="0px" y="0px"
	 viewBox="0 0 1366 768" style="enable-background:new 0 0 1366 768;" xml:space="preserve">
<style type="text/css">
	.st0{stroke:#000000;stroke-miterlimit:10;}
	.st1{fill:#FFFFFF;stroke:#000000;stroke-miterlimit:10;}
</style>
<g>
	<path class="st0" d="M564.4,401.8c63.3-47.6,128.8-93.8,128.8-93.8l30.6-18.2c1.6-1,3.3-1.8,5.1-2.4l28.5-10.2
		c7.9-2.8,14.9-8.5,20-16.4l0,0c0.1-0.2,0.3-0.4,0.4-0.6l28.6-28.7c1.5-1.5,3.2-2.7,5-3.5l7.9-3.7c4.5-2.1,26.7-5.3,31.6-5.3
		l14.5,1.6c3.1,0.3,6,1.5,8.7,3.3l6.9,4.8c2.1,1.5,4,3.4,5.6,5.7l3.7,5.5l2.7,9l4,1.6l7.9,2.6c1.5,0.5,2.9,1.1,4.3,1.9l10.7,6.2
		l0.2,0.3c2.4,3,3.8,7,3.8,11.2l0,0l-1,0.7c-3.8,2.8-8.1,4.2-12.5,4.2l0,0c-2,0-9.4,6.6-9.4,6.6l-4.7,13.9l-1,4.5
		c-1.5,6.5-2.1,13.3-1.8,20.1l0,0c0.1,2.1,0.9,4.1,2.2,5.5l0,0c3.1,3.4,5.3,7.8,6.4,12.7l1.1,4.8l0.2,2.5c0.3,4.4-2.6,8.2-6.2,8.2
		l0,0l-4.7-11.5l0,0c-3.1-5.3-7.5-9.3-12.6-11.3l-11.1-4.3l-19.6-8.2l-16.2-8.6l-13.6-6.5c-1.8-0.9-3.5-1.9-5.1-3.1l-5-3.9l-6.1-3.7
		c-4-2.4-8.4-4-12.8-4.5l0,0l0,0c-2.6,2.3-3.1,6.7-1.2,9.7l0.6,0.9l10.1,4.1l18.9,10.7l10.1,9.1c1.8,1.6,3.5,3.4,5.1,5.4l4.4,5.3
		l0,0c2.2,7.6,3.5,15.6,3.9,23.6l0.2,5.1l-2.7,10.7l-2.9,5.3c-1.6,3-3.7,5.5-6.2,7.4l-6.1,4.8c-3.8,3-7.9,5.2-12.2,6.6l-29.2,9.5
		l-12.7,5c-2.3,0.9-4.6,1.9-6.8,3.1l-8.1,4.3l-1.4,0.5c-13,4.4-25.6,10.2-37.7,17.3l0,0l-25,10.7l-14.8,6.6l-16.9,6.6l-15.5,3.3
		h-19.6h-16.2l-16.9-3.3l-13.5-4.9l-16.2-2.5l-22.9-5.7l-18.2-2.5l-25.6,1.6l-16.2-0.8l0,0c-10.3,0.5-20.5,2.7-30.3,6.6l0,0
		c0,0-0.1,0-2.2-0.4l-6.8-1.3c-1.3-0.3-3.9-3.9-3.9-8.1l19-7.3l-7.8,2.6c2.9-1.2,5.8-2.3,8.8-3.2l22.6-6.8l29.7-8.7l21.6-4.5
		c2.3-0.5,4.5-1.2,6.7-2.1l22.6-9.6C560.5,404.4,562.5,403.2,564.4,401.8z"/>
	<path class="st1" d="M854.7,278.4l10.9-2.2c2.9-0.6,5.9-0.6,8.8-0.2l8.4,1.3l0,0c5,3.3,8.1,9.6,8.1,16.5l0,0c0,1.3-0.3,2.5-0.9,3.5
		l-4.5,8.2l-1.5,1.9c-2.9,3.5-6.8,5.5-10.9,5.5H864l-3.1-0.5c-4.6-0.8-9-3.1-12.5-6.8l-1.3-1.3c-0.1,0-0.1-0.1-0.2-0.1
		c-4.9-3.9-6.6-11.6-4.5-18.2l0,0l3.3-3C848.4,280.6,851.4,279,854.7,278.4z"/>
	<path class="st0" d="M708.9,509.7l1.2,0.4c1.3,0.5,2.5,1.5,3.3,2.9l1,1.8l2.8,3.4l1.7,1.3c1,0.8,2.2,1.2,3.4,1.2h4.2l3.3-1.1
		l1.2-3.2v-3.7l-1.5-4.6l0.3-2.1l1.2,0.3h5.6h1.3c1.7,0,2.2,1.4,3.1,3.1l2.2,2.1l2.2,2.7c1.8,2.3,3.9,4.2,6.1,5.8l0.9,0.6l5.2,1.9
		c1.4,0.5,2.9,0.8,4.4,0.8h7.6c1.2,0,2.3,0.2,3.4,0.5l9.8,3.1c1.5,0.5,3,0.7,4.5,0.7h6l13.9,4.6l3,4l0.9,3.8l-3.9-2.2l-5.8-0.6h-3.3
		l-2.3,2.2l-5.8,0.6h-10.4l-8.6-2.5l-14.9-3.1l-11.6-0.9l-9.1-1.5l-2.5,2.2c0,0-0.8,0.9,0.3,1.5c1,0.6,4.6,3.1,5.6,3.4
		c1,0.3,4.6,2.2,5.8,2.5c1.3,0.3,12.7,4.6,12.7,4.6l9.1,2.5l10.1,3.1c0,0,8.6-0.6,9.6,0s3,2.8,3,2.8h7.8l2.3,3.1l0.8,3v3.4l-2.8-3.4
		l-6.8-0.3l-2.8,0.3l-3.8,2.5c0,0-6.8,0.9-7.6,0.6c-0.8-0.3-3.3-3.4-4.3-3.4c-0.6,0-5.3,0.4-8.6,0.6c-2,0.2-4-0.2-5.9-1.2l-2.7-1.3
		c0,0-2-0.6-4.8-0.6c-2.8,0-13.2-1.5-13.2-1.5l-7.8-2.2l-12.7-0.6l-13.2-0.3c0,0-4.2,0.8-4.3,0.5c-0.1-0.3-5.6-3.4-5.6-3.4v-3.4
		l0.3-1.4c0,0,1.8-2.5,2.8-2.8c1-0.3,4.3-3.1,4.3-3.1h11.9h4.3l1.8-4l-1.3-4l-5.3-3.7l-2.8-2.2l-4.6-3.4l-4.3-3.4l-0.6-1.6
		c-0.8-2.2-0.8-4.5-0.1-6.7l0.1-0.3l0,0C702.8,508.9,705.9,508.6,708.9,509.7z"/>
	<ellipse class="st1" cx="868.5" cy="254.8" rx="7.1" ry="8.6"/>
</g>
</svg>
