<?xml version="1.0" encoding="utf-8"?>
<!-- Generator: Adobe Illustrator 26.1.0, SVG Export Plug-In . SVG Version: 6.00 Build 0)  -->
<svg version="1.1" id="Capa_1" xmlns="http://www.w3.org/2000/svg" xmlns:xlink="http://www.w3.org/1999/xlink" x="0px" y="0px"
	 viewBox="0 0 1366 768" style="enable-background:new 0 0 1366 768;" xml:space="preserve">
<style type="text/css">
	.st0{fill:#FFFFFF;stroke:#FFFFFF;stroke-miterlimit:10;}
	.st1{stroke:#000000;stroke-miterlimit:10;}
</style>
<g>
	<path class="st0" d="M378.9,405.5c118.3-84.3,240.8-166.8,240.8-166.8l57.3-32.1c3.2-1.8,6.3-3,9.5-4.2l53.1-18.2
		c14.7-4.9,27.9-15.2,37.3-29.1l0,0c0-0.6,0.5-0.6,1.1-1.2l53.6-50.9c2.6-2.4,5.8-4.9,9.5-6.1l14.7-6.7c8.4-3.6,50-9.1,58.9-9.1
		l27.3,3c5.8,0.6,11,2.4,16.3,6.1l13.1,8.5c4.2,2.4,7.4,6.1,10.5,10.3l6.8,9.7l5.3,15.8l7.4,3l14.7,4.9c2.6,0.6,5.3,1.8,7.9,3.6
		l20,10.9l0.5,0.6c4.7,5.5,7.4,12.1,7.4,20l0,0l-1.6,1.2c-6.8,4.9-15.2,7.3-23.7,7.3l0,0c-3.7,0-17.9,11.5-17.9,11.5l-8.9,24.9
		l-2.1,7.9c-2.6,11.5-4.2,23.7-3.2,35.8l0,0c0,3.6,1.6,7.3,4.2,9.7l0,0c5.8,6.1,10,14,12.1,22.4l2.1,8.5l0.5,4.2
		c0.5,7.9-4.7,14.6-11.6,14.6l0,0l-8.9-20.6l0,0c-5.8-9.7-14.2-16.4-23.7-20l-20.5-7.9l-36.8-14.6l-30.5-15.2l-25.2-11.5
		c-3.2-1.2-6.3-3.6-9.5-5.5l-9.5-6.7l-11.6-6.7c-7.4-4.2-15.8-7.3-24.2-7.9l0,0l0,0c-4.7,4.2-5.8,12.1-2.1,17.6l1.1,1.8l18.9,7.3
		l35.2,18.8l18.9,15.8c3.7,3,6.3,6.1,9.5,9.7l7.9,9.1l0,0c4.2,13.3,6.8,27.9,7.4,41.9l0.5,9.1l-5.3,18.8l-5.3,9.7
		c-3.2,5.5-6.8,9.7-11.6,13.3l-11.6,8.5c-6.8,5.5-14.7,9.1-22.6,11.5l-54.7,17l-23.7,9.1c-4.2,1.8-8.4,3.6-12.6,5.5l-15.2,7.3
		l-2.6,0.6c-24.2,7.9-47.9,18.2-70.5,30.9l0,0L616.6,491l-27.9,11.5l-31.6,11.5l-28.9,6.1h-36.8h-30.5l-31.6-6.1l-25.2-8.5
		l-30.5-4.2L330.5,491l-34.2-4.2l-47.9,3l-30.5-1.2l0,0c-19.5,1.2-38.4,4.9-56.8,11.5l0,0c0,0,0,0-4.2-0.6l-12.6-2.4
		c-2.6-0.6-7.4-6.7-7.4-14.6l35.8-12.7l-14.7,4.9c5.3-2.4,11-4.2,16.3-5.5l42.1-12.1l55.7-15.8l40.5-7.9c4.2-0.6,8.4-1.8,12.6-3.6
		l42.1-17C371.5,410.4,375.2,407.9,378.9,405.5z"/>
	<path class="st1" d="M921.6,186.5l20.5-3.6c5.3-1.2,11-1.2,16.3,0l15.8,2.4l0,0c9.5,6.1,15.2,17,15.2,29.1l0,0
		c0,2.4-0.5,4.2-1.6,6.1l-8.4,14.6l-2.6,3c-5.3,6.1-12.6,9.7-20.5,9.7h-16.8l-5.8-1.2c-8.9-1.2-16.8-5.5-23.7-12.1l-2.6-2.4
		c0,0,0,0-0.5,0c-9.5-6.7-12.6-20.6-8.4-32.1l0,0l6.3-5.5C910,190.2,915.8,187.8,921.6,186.5z"/>
	<path class="st0" d="M649.2,597.2l2.1,0.6c2.6,0.6,4.7,2.4,6.3,5.5l2.1,3l5.3,6.1l3.2,2.4c2.1,1.2,4.2,1.8,6.3,1.8h7.9l6.3-1.8
		l2.1-6.1V602l-2.6-8.5l0.5-3.6l2.1,0.6h10.5h2.6c3.2,0,4.2,2.4,5.8,5.5l4.2,3.6l4.2,4.9c3.7,4.2,7.4,7.3,11.6,10.3l1.6,1.2l9.5,3.6
		c2.6,1.2,5.3,1.2,8.4,1.2h14.2c2.1,0,4.2,0,6.3,0.6l18.4,5.5c2.6,0.6,5.8,1.2,8.4,1.2H808l26.3,8.5l5.8,7.3l1.6,6.7l-7.4-3.6
		l-11-1.2h-6.3l-4.2,3.6l-11,1.2h-19.5l-16.3-4.2l-27.9-5.5l-21.6-1.8l-16.8-3l-4.7,3.6c0,0-1.6,1.8,0.5,3s8.4,5.5,10.5,6.1
		c2.1,0.6,8.4,3.6,11,4.2c2.6,0.6,23.7,8.5,23.7,8.5l16.8,4.2l18.9,5.5c0,0,16.3-1.2,17.9,0s5.8,4.9,5.8,4.9h14.7l4.2,5.5l1.6,5.5
		v6.1l-5.3-6.1l-12.6-0.6l-5.3,0.6l-6.8,4.2c0,0-12.6,1.8-14.2,1.2c-1.6-0.6-6.3-6.1-7.9-6.1c-1.1,0-10,0.6-15.8,1.2
		c-3.7,0-7.4-0.6-11-1.8l-5.3-2.4c0,0-3.7-1.2-8.9-1.2c-5.3,0-24.7-3-24.7-3l-14.7-3.6l-23.7-1.2l-24.7-0.6c0,0-7.9,1.2-7.9,0.6
		c0-0.6-10.5-6.1-10.5-6.1v-6.1l0.5-2.4c0,0,3.2-4.2,5.3-4.9c2.1-0.6,7.9-5.5,7.9-5.5h22.1h7.9l3.2-7.3l-2.6-7.3l-10-6.7l-5.3-3.6
		l-8.4-6.1l-7.9-6.1l-1.1-3c-1.6-3.6-1.6-7.9,0-12.1v-0.6l0,0C637.6,596,643.4,595.3,649.2,597.2z"/>
	<ellipse class="st1" cx="947.4" cy="144.7" rx="13.1" ry="15.2"/>
</g>
</svg>
